<?xml version="1.0" encoding="UTF-8"?>
<svg width="595.28pt" height="566.93pt" version="1.2" viewBox="0 0 595.28 566.93" xmlns="http://www.w3.org/2000/svg" xmlns:cc="http://creativecommons.org/ns#" xmlns:dc="http://purl.org/dc/elements/1.1/" xmlns:rdf="http://www.w3.org/1999/02/22-rdf-syntax-ns#">
 <metadata>
  <rdf:RDF>
   <cc:Work rdf:about="">
    <dc:format>image/svg+xml</dc:format>
    <dc:type rdf:resource="http://purl.org/dc/dcmitype/StillImage"/>
    <dc:title/>
   </cc:Work>
  </rdf:RDF>
 </metadata>
 <g>
  <path d="m46.453 344.13c-4.5078 0-8.4492 5.5586-11.832 16.672-3.3789 11.109-5.0703 20.969-5.0703 29.574 0 18.023 4.7109 27.035 14.137 27.035 2.6602 0 4.9922-1.1484 6.9883-3.4531 1.9961-2.3047 3.4297-4.6875 4.3008-7.1445 0.87109-2.457 1.9219-5.8398 3.1523-10.141l19.508 1.5352c-2.6602 12.598-6.6289 22.227-11.906 28.883-5.2734 6.6602-12.621 9.9883-22.043 9.9883-11.062 0-19.59-4.1758-25.582-12.523-5.9922-8.3438-8.9883-18.973-8.9883-31.875 0-15.059 2.9727-29.703 8.9141-43.941 2.8672-7.0664 6.8867-12.879 12.059-17.438 5.1719-4.5586 11.086-6.8359 17.746-6.8359 8.1914 0 14.133 2.7148 17.82 8.1445 1.8438 2.6602 3.3516 5.375 4.5312 8.1406 1.1758 2.7656 2.0234 6.3008 2.5352 10.602 0.92188 6.8633 1.4844 14.234 1.6875 22.121l-19.816-1.8438c0-13.211-1.2305-21.508-3.6875-24.887-1.125-1.7422-2.6133-2.6133-4.4531-2.6133"/>
  <path d="m119.2 437.7c-9.7812 0-18.027-4.3789-24.734-13.137-6.707-8.7539-10.062-22.07-10.062-39.941 0-17.875 3.6602-32.441 10.984-43.711 7.3242-11.266 15.953-16.898 25.887-16.898s18.207 4.4062 24.812 13.215c6.6055 8.8047 9.9062 22.07 9.9062 39.789s-3.6836 32.262-11.059 43.629c-7.375 11.371-15.953 17.055-25.734 17.055zm2.2266-95.406c-4.5039 0-8.3984 3.9688-11.676 11.906-3.2773 7.9414-4.9141 17.926-4.9141 29.961 0 12.031 1.4062 20.945 4.2227 26.73 2.8164 5.7891 6.3242 8.6797 10.523 8.6797 4.1992 0 7.9141-3.9922 11.141-11.98 3.2266-7.9922 4.8398-18.004 4.8398-30.035 0-12.035-1.3594-20.922-4.0742-26.656-2.7109-5.7383-6.0664-8.6055-10.062-8.6055"/>
  <path d="m194.28 324.78c11.984 0 21.227 4.7109 27.73 14.133 6.5039 9.4219 9.7539 20.844 9.7539 34.262 0 10.344-1.6367 20.098-4.9141 29.266-3.2773 9.168-8.3984 16.848-15.363 23.043-6.9648 6.1992-15.109 9.2969-24.43 9.2969-1.8438 0-8.8047-0.71875-20.895-2.1523 1.4375-22.02 2.1524-40.25 2.1524-54.691 0-14.441-0.46094-30.418-1.3828-47.934 9.9336-3.4805 19.051-5.2227 27.348-5.2227zm-3.3789 91.254c4.7109 0 9.3945-4.1719 14.055-12.52 4.6602-8.3477 6.9922-17.359 6.9922-27.039 0-9.6758-1.6641-17.641-4.9961-23.887-3.3281-6.25-7.2969-9.375-11.902-9.375-2.4609 0-4.7656 0.41015-6.9141 1.2305 0.41015 15.16 0.61328 27.883 0.61328 38.176s-0.30859 21.023-0.92188 32.188c0.71875 0.82031 1.7422 1.2266 3.0742 1.2266"/>
  <path d="m244.86 433.09c-0.40625-16.184-0.61328-31.492-0.61328-45.934 0-14.441 0.82032-33.238 2.457-56.383 17.516-2.6641 34.621-3.9961 51.316-3.9961v18.898c-11.574 0-22.328 0.35547-32.266 1.0742-0.40625 11.473-0.66407 20.277-0.76563 26.426 7.7812-1.1289 17-1.793 27.652-2l2.918 16.902c-6.8633 0.10156-17.156 0.86719-30.879 2.3047 0 12.289 0.0508 21.148 0.15234 26.574 8.9102-0.71484 19.562-2.25 31.957-4.6055l2.6094 16.898c-8.7031 3.9922-18.996 5.9922-30.879 5.9922l-23.66-2.1523"/>
  <path d="m349.45 336.3 15.363 1.3828c0.71484 8.1914 1.8164 19.023 3.3008 32.492 1.4844 13.469 2.5352 23.02 3.1484 28.652l0.76953-0.15625c7.2734-31.34 11.984-55.867 14.133-73.586l20.125 1.6875c-5.7344 33.902-14.133 68.723-25.191 104.47l-14.75-1.2266c-3.4844-12.086-7.375-27.91-11.676-47.473-4.4062 21.098-8.6055 37.945-12.598 50.543l-14.75-1.2305c-8.707-43.426-14.594-78.656-17.668-105.7l19.82 1.6875c1.6367 17.309 4.1992 40.969 7.6797 70.98l0.76953-0.15625c5.9414-27.344 9.7812-48.137 11.523-62.371"/>
  <path d="m441.16 326.16c-0.92187 16.184-1.3828 34.414-1.3828 54.691 0 20.281 0.66797 38.766 2 55.461l-20.742-1.8438c-1.332-20.895-1.9961-39.766-1.9961-56.613 0-16.848 0.46094-34.695 1.3828-53.539l20.738 1.8438"/>
  <path d="m473.55 432.78c-1.0273-18.125-1.5391-33.926-1.5391-47.395s0.3086-27.523 0.92188-42.172l-18.742 2.6133-3.3789-17.82c10.035-1.7422 19.973-3.0234 29.805-3.8438l28.727-1.5352 2.9219 17.055c-5.6328 0.30468-11.984 0.76562-19.051 1.3828-0.61719 14.746-0.92188 28.266-0.92188 40.559 0 12.289 0.20313 29.906 0.61328 52.848l-19.355-1.6914"/>
  <path d="m541.61 355.5 0.15234 17.668 23.043-1.3828c0-15.98 0.25781-32.93 0.76953-50.852l20.277 1.8438c-0.91797 16.281-1.3789 33.926-1.3789 52.922 0 19 0.5625 38.078 1.6875 57.23l-19.664-1.6914c-0.92188-8.8086-1.4844-22.941-1.6914-42.402l-22.582 1.3828c0.30469 14.543 0.76562 29.344 1.3828 44.398l-20.895-1.8438c-1.1289-21.609-1.6914-41.477-1.6914-59.605 0-18.129 0.41016-33.801 1.2305-47.012l20.277 1.8438c-0.61328 9.1133-0.91797 18.281-0.91797 27.5"/>
  <path d="m3.4336 451.25h588.41v3.3476h-588.41v-3.3476"/>
 </g>
 <g fill="#00783a">
  <path d="m21.098 475.16 4.4648 0.40234c0.21094 2.3828 0.53125 5.5312 0.96094 9.4492 0.43359 3.9141 0.73828 6.6914 0.91797 8.3281l0.22266-0.043c2.1133-9.1133 3.4844-16.242 4.1094-21.395l5.8477 0.49218c-1.6641 9.8555-4.1055 19.977-7.3242 30.371l-4.2852-0.35938c-1.0156-3.5117-2.1445-8.1133-3.3945-13.801-1.2812 6.1328-2.5039 11.031-3.6641 14.695l-4.2891-0.35937c-2.5273-12.625-4.2422-22.867-5.1367-30.727l5.7617 0.48828c0.47656 5.0352 1.2227 11.914 2.2344 20.637l0.22266-0.043c1.7305-7.9531 2.8438-13.996 3.3516-18.137"/>
  <path d="m40.707 503.3c-0.12109-4.7031-0.17969-9.1562-0.17969-13.355 0-4.1992 0.23828-9.6641 0.71484-16.391 5.0898-0.77344 10.062-1.1602 14.918-1.1602v5.4922c-3.3672 0-6.4922 0.10547-9.3789 0.3125-0.12109 3.3359-0.19531 5.8945-0.22656 7.6797 2.2656-0.32422 4.9453-0.51953 8.043-0.57813l0.84766 4.9141c-1.9961 0.0273-4.9883 0.25-8.9766 0.66797 0 3.5742 0.01172 6.1484 0.04297 7.7266 2.5898-0.20703 5.6875-0.65235 9.2891-1.3398l0.76172 4.9141c-2.5312 1.1602-5.5234 1.7422-8.9766 1.7422l-6.8789-0.625"/>
  <path d="m83.895 502.67-1.0273-6.2109-6.6523 0.26953-1.6992 8.3984-6.2539-0.53516 7.9961-32.383 8.2617 0.71484 5.8516 30.281zm-3.9297-24.609-2.8125 13.891 5-0.17968-2.1875-13.711"/>
  <path d="m93.945 503.52c0.38672-7.1484 0.58203-13.52 0.58203-19.117 0-5.5976-0.01563-9.2734-0.04687-11.031 3.2773-1.5469 6.6836-2.3203 10.23-2.3203 2.6172 0 4.8164 0.83203 6.5859 2.5 1.7734 1.668 2.6562 4.0195 2.6562 7.0547 0 3.5156-2.4844 6.8945-7.457 10.141 2.7109 3.3945 5.4805 7.1289 8.3086 11.211l-4.2891 3.1719c-1.875-2.8281-5.2422-7.4453-10.094-13.848-0.0898 4.5859-0.22266 8.8867-0.40235 12.91zm6.6094-15.273c2.2031-1.043 4.082-2.332 5.6289-3.8633 1.5469-1.5352 2.3242-2.9258 2.3242-4.1797 0-1.25-0.36718-2.2148-1.0976-2.9023-0.72657-0.68359-1.6875-1.0273-2.8789-1.0273s-2.5 0.2539-3.9297 0.76172c0 5.0312-0.0156 8.7695-0.0469 11.211"/>
  <path d="m117.98 503.3c-0.12109-4.7031-0.17968-9.1562-0.17968-13.355 0-4.1992 0.23828-9.6641 0.71484-16.391 5.0898-0.77344 10.062-1.1602 14.918-1.1602v5.4922c-3.3672 0-6.4922 0.10547-9.3789 0.3125-0.12109 3.3359-0.19531 5.8945-0.22656 7.6797 2.2656-0.32422 4.9453-0.51953 8.0391-0.57813l0.85156 4.9141c-1.9961 0.0273-4.9883 0.25-8.9766 0.66797 0 3.5742 0.0117 6.1484 0.043 7.7266 2.5898-0.20703 5.6875-0.65235 9.2891-1.3398l0.76172 4.9141c-2.5312 1.1602-5.5234 1.7422-8.9805 1.7422l-6.875-0.625"/>
  <path d="m157.41 477.44c-1.3125 0-2.457 1.6133-3.4414 4.8438-0.98047 3.2305-1.4727 6.0977-1.4727 8.5977 0 5.2422 1.3711 7.8633 4.1094 7.8633 0.77344 0 1.4531-0.33594 2.0312-1.0078 0.58204-0.66796 1-1.3633 1.25-2.0742 0.25391-0.71485 0.5586-1.6992 0.91797-2.9492l5.6719 0.44531c-0.77344 3.6641-1.9297 6.4609-3.4609 8.3984-1.5352 1.9336-3.6719 2.9023-6.4102 2.9023-3.2148 0-5.6953-1.2148-7.4375-3.6406-1.7422-2.4258-2.6133-5.5156-2.6133-9.2656 0-4.3789 0.86719-8.6367 2.5938-12.773 0.83203-2.0547 2-3.7461 3.5039-5.0703s3.2227-1.9883 5.1602-1.9883c2.3828 0 4.1094 0.78906 5.1797 2.3672 0.53516 0.77343 0.97657 1.5625 1.3164 2.3672 0.34375 0.80469 0.58984 1.832 0.73828 3.082 0.26953 1.9961 0.43359 4.1406 0.49219 6.4336l-5.7617-0.53906c0-3.8398-0.35938-6.25-1.0703-7.2344-0.32813-0.50781-0.76172-0.75781-1.2969-0.75781"/>
  <path d="m178.56 504.64c-2.8438 0-5.2422-1.2734-7.1914-3.8203-1.9492-2.543-2.9258-6.4141-2.9258-11.613 0-5.1953 1.0664-9.4297 3.1953-12.707 2.1289-3.2734 4.6367-4.9102 7.5234-4.9102 2.8906 0 5.293 1.2773 7.2148 3.8398 1.9219 2.5625 2.8789 6.418 2.8789 11.566 0 5.1523-1.0703 9.3789-3.2148 12.688-2.1445 3.3047-4.6367 4.957-7.4805 4.957zm0.64844-27.738c-1.3125 0-2.4414 1.1562-3.3945 3.4609-0.95313 2.3086-1.4297 5.2109-1.4297 8.7109s0.41015 6.0898 1.2266 7.7734c0.82031 1.6797 1.8398 2.5234 3.0625 2.5234 1.2188 0 2.2969-1.1641 3.2344-3.4844 0.9414-2.3242 1.4102-5.2344 1.4102-8.7344 0-3.4961-0.39453-6.082-1.1836-7.7461-0.78906-1.668-1.7656-2.5039-2.9258-2.5039"/>
  <path d="m200.18 471.81c3.4844 0 6.1719 1.3711 8.0625 4.1094 1.8906 2.7383 2.8359 6.0586 2.8359 9.957 0 3.0117-0.47656 5.8477-1.4297 8.5117-0.95312 2.6641-2.4414 4.8984-4.4688 6.6992-2.0234 1.8008-4.3906 2.7031-7.1016 2.7031-0.53515 0-2.5586-0.21094-6.0742-0.6289 0.41797-6.3984 0.625-11.699 0.625-15.898s-0.13281-8.8438-0.39843-13.934c2.8867-1.0156 5.5352-1.5195 7.9492-1.5195zm-0.98437 26.531c1.3711 0 2.7344-1.2148 4.0898-3.6406 1.3516-2.4258 2.0312-5.0469 2.0312-7.8633 0-2.8125-0.48437-5.1289-1.4531-6.9453-0.96485-1.8164-2.1211-2.7226-3.4609-2.7226-0.71484 0-1.3867 0.11719-2.0117 0.35547 0.1211 4.4102 0.17969 8.1094 0.17969 11.102s-0.0898 6.1094-0.26563 9.3555c0.20704 0.23828 0.50391 0.35937 0.89063 0.35937"/>
  <path d="m215.43 503.3c-0.11719-4.7031-0.17969-9.1562-0.17969-13.355 0-4.1992 0.23828-9.6641 0.71485-16.391 5.0938-0.77344 10.066-1.1602 14.918-1.1602v5.4922c-3.3633 0-6.4922 0.10547-9.3789 0.3125-0.11719 3.3359-0.19141 5.8945-0.22266 7.6797 2.2617-0.32422 4.9414-0.51953 8.0391-0.57813l0.84766 4.9141c-1.9922 0.0273-4.9883 0.25-8.9766 0.66797 0 3.5742 0.0156 6.1484 0.043 7.7266 2.5938-0.20703 5.6875-0.65235 9.293-1.3398l0.75781 4.9141c-2.5312 1.1602-5.5234 1.7422-8.9766 1.7422l-6.8789-0.625"/>
  <path d="m245.4 475.16 4.4688 0.40234c0.20703 2.3828 0.52734 5.5312 0.95703 9.4492 0.43359 3.9141 0.73828 6.6914 0.91797 8.3281l0.22266-0.043c2.1133-9.1133 3.4844-16.242 4.1094-21.395l5.8516 0.49218c-1.668 9.8555-4.1094 19.977-7.3242 30.371l-4.2891-0.35938c-1.0117-3.5117-2.1445-8.1133-3.3945-13.801-1.2812 6.1328-2.5 11.031-3.6602 14.695l-4.2891-0.35937c-2.5312-12.625-4.2422-22.867-5.1367-30.727l5.7617 0.48828c0.47656 5.0352 1.2188 11.914 2.2305 20.637l0.22656-0.043c1.7266-7.9531 2.8438-13.996 3.3477-18.137"/>
  <path d="m272.06 472.21c-0.26562 4.7031-0.40234 10.004-0.40234 15.898 0 5.8984 0.19531 11.273 0.58203 16.125l-6.0273-0.53515c-0.39063-6.0742-0.58204-11.562-0.58204-16.461s0.13282-10.086 0.40235-15.562l6.0273 0.53516"/>
  <path d="m281.58 503.21c-0.30078-5.2695-0.44922-9.8633-0.44922-13.777 0-3.918 0.0899-8.0039 0.26953-12.262l-5.4492 0.75781-0.98046-5.1797c2.918-0.50781 5.8047-0.8789 8.6641-1.1172l8.3516-0.44532 0.84766 4.957c-1.6367 0.0899-3.4844 0.22266-5.5391 0.40235-0.17968 4.2852-0.26562 8.2188-0.26562 11.789 0 3.5742 0.0586 8.6953 0.17969 15.367l-5.6289-0.49219"/>
  <path d="m301.37 480.74 0.043 5.1328 6.7031-0.39844c0-4.6484 0.0742-9.5742 0.22266-14.785l5.8945 0.53515c-0.26563 4.7344-0.40235 9.8633-0.40235 15.387s0.16407 11.07 0.49219 16.637l-5.7188-0.48828c-0.26562-2.5625-0.42969-6.6719-0.48828-12.328l-6.5664 0.40235c0.0899 4.2266 0.22266 8.5312 0.40235 12.906l-6.0742-0.53516c-0.32813-6.2812-0.49219-12.059-0.49219-17.332 0-5.2695 0.11719-9.8242 0.35547-13.664l5.8984 0.53515c-0.17969 2.6484-0.26953 5.3164-0.26953 7.9961"/>
  <path d="m324.86 496.02c0.32813 1.043 0.49219 2.375 0.49219 4 0 1.6211-0.20703 2.9688-0.625 4.0391l-6.0312-0.49219c0.26953-2.2617 0.40235-3.9961 0.40235-5.2031 0-1.2031-0.0117-2.1641-0.043-2.8789l5.8047 0.53515"/>
  <path d="m350.9 477.44c-1.3086 0-2.4531 1.6133-3.4375 4.8438-0.98438 3.2305-1.4727 6.0977-1.4727 8.5977 0 5.2422 1.3672 7.8633 4.1094 7.8633 0.77343 0 1.4492-0.33594 2.0312-1.0078 0.58203-0.66796 0.99609-1.3633 1.25-2.0742 0.2539-0.71485 0.55859-1.6992 0.91796-2.9492l5.6719 0.44531c-0.77734 3.6641-1.9297 6.4609-3.4609 8.3984-1.5352 1.9336-3.6719 2.9023-6.4102 2.9023-3.2188 0-5.6953-1.2148-7.4375-3.6406-1.7422-2.4258-2.6133-5.5156-2.6133-9.2656 0-4.3789 0.86329-8.6367 2.5898-12.773 0.83594-2.0547 2.0039-3.7461 3.5078-5.0703s3.2227-1.9883 5.1562-1.9883c2.3828 0 4.1094 0.78906 5.1836 2.3672 0.53516 0.77343 0.97266 1.5625 1.3164 2.3672 0.34375 0.80469 0.58984 1.832 0.73828 3.082 0.26563 1.9961 0.42969 4.1406 0.48828 6.4336l-5.7617-0.53906c0-3.8398-0.35546-6.25-1.0703-7.2344-0.32812-0.50781-0.75781-0.75781-1.2969-0.75781"/>
  <path d="m372.05 504.64c-2.8477 0-5.2422-1.2734-7.1914-3.8203-1.9531-2.543-2.9258-6.4141-2.9258-11.613 0-5.1953 1.0625-9.4297 3.1914-12.707 2.1289-3.2734 4.6406-4.9102 7.5273-4.9102s5.293 1.2773 7.2109 3.8398c1.9219 2.5625 2.8828 6.418 2.8828 11.566 0 5.1523-1.0703 9.3789-3.2148 12.688-2.1445 3.3047-4.6367 4.957-7.4805 4.957zm0.64453-27.738c-1.3086 0-2.4414 1.1562-3.3945 3.4609-0.95312 2.3086-1.4297 5.2109-1.4297 8.7109s0.41016 6.0898 1.2305 7.7734c0.82031 1.6797 1.8398 2.5234 3.0586 2.5234 1.2226 0 2.3008-1.1641 3.2383-3.4844 0.9375-2.3242 1.4062-5.2344 1.4062-8.7344 0-3.4961-0.39453-6.082-1.1836-7.7461-0.78906-1.668-1.7617-2.5039-2.9258-2.5039"/>
  <path d="m394.31 471.81c3.4844 0 6.1719 1.3711 8.0625 4.1094 1.8906 2.7383 2.8359 6.0586 2.8359 9.957 0 3.0117-0.47657 5.8477-1.4297 8.5117-0.95313 2.6641-2.4414 4.8984-4.4648 6.6992-2.0234 1.8008-4.3906 2.7031-7.1016 2.7031-0.53515 0-2.5625-0.21094-6.0742-0.6289 0.41797-6.3984 0.625-11.699 0.625-15.898s-0.13281-8.8438-0.40234-13.934c2.8906-1.0156 5.5391-1.5195 7.9492-1.5195zm-0.98047 26.531c1.3672 0 2.7305-1.2148 4.0859-3.6406s2.0312-5.0469 2.0312-7.8633c0-2.8125-0.48047-5.1289-1.4492-6.9453-0.96875-1.8164-2.1211-2.7226-3.4648-2.7226-0.71094 0-1.3828 0.11719-2.0078 0.35547 0.1211 4.4102 0.17969 8.1094 0.17969 11.102s-0.0898 6.1094-0.26953 9.3555c0.21094 0.23828 0.50781 0.35937 0.89453 0.35937"/>
  <path d="m409.45 503.3c-0.11718-4.7031-0.17578-9.1562-0.17578-13.355 0-4.1992 0.23828-9.6641 0.71485-16.391 5.0898-0.77344 10.062-1.1602 14.918-1.1602v5.4922c-3.3633 0-6.4922 0.10547-9.3789 0.3125-0.12109 3.3359-0.19531 5.8945-0.22656 7.6797 2.2656-0.32422 4.9453-0.51953 8.043-0.57813l0.84765 4.9141c-1.9961 0.0273-4.9883 0.25-8.9766 0.66797 0 3.5742 0.0117 6.1484 0.043 7.7266 2.5898-0.20703 5.6875-0.65235 9.2891-1.3398l0.76172 4.9141c-2.5312 1.1602-5.5234 1.7422-8.9766 1.7422l-6.8828-0.625"/>
  <path d="m450.23 475.16 4.4648 0.40234c0.21094 2.3828 0.53125 5.5312 0.96094 9.4492 0.43359 3.9141 0.73828 6.6914 0.91406 8.3281l0.22656-0.043c2.1133-9.1133 3.4844-16.242 4.1094-21.395l5.8516 0.49218c-1.668 9.8555-4.1094 19.977-7.3281 30.371l-4.2852-0.35938c-1.0117-3.5117-2.1445-8.1133-3.3945-13.801-1.2812 6.1328-2.5039 11.031-3.6641 14.695l-4.2891-0.35937c-2.5312-12.625-4.2422-22.867-5.1367-30.727l5.7656 0.48828c0.47265 5.0352 1.2188 11.914 2.2305 20.637l0.22265-0.043c1.7266-7.9531 2.8438-13.996 3.3516-18.137"/>
  <path d="m476.9 472.21c-0.26563 4.7031-0.40235 10.004-0.40235 15.898 0 5.8984 0.19532 11.273 0.58203 16.125l-6.0312-0.53515c-0.38671-6.0742-0.57812-11.562-0.57812-16.461s0.13281-10.086 0.39844-15.562l6.0312 0.53516"/>
  <path d="m485.88 503.21c-0.29688-5.2695-0.44531-9.8633-0.44531-13.777 0-3.918 0.0898-8.0039 0.26953-12.262l-5.4492 0.75781-0.98438-5.1797c2.918-0.50781 5.8047-0.8789 8.6641-1.1172l8.3516-0.44532 0.85156 4.957c-1.6406 0.0899-3.4844 0.22266-5.5391 0.40235-0.17969 4.2852-0.26953 8.2188-0.26953 11.789 0 3.5742 0.0625 8.6953 0.17969 15.367l-5.6289-0.49219"/>
  <path d="m505.66 480.74 0.043 5.1328 6.6992-0.39844c0-4.6484 0.0742-9.5742 0.22266-14.785l5.8984 0.53515c-0.26953 4.7344-0.40234 9.8633-0.40234 15.387s0.16406 11.07 0.48828 16.637l-5.7148-0.48828c-0.26953-2.5625-0.42969-6.6719-0.49219-12.328l-6.5664 0.40235c0.0899 4.2266 0.22657 8.5312 0.40235 12.906l-6.0742-0.53516c-0.32813-6.2812-0.48828-12.059-0.48828-17.332 0-5.2695 0.11718-9.8242 0.35547-13.664l5.8945 0.53515c-0.17578 2.6484-0.26563 5.3164-0.26563 7.9961"/>
  <path d="m540.1 492.62c0 1.5469 0.34375 2.9336 1.0273 4.1524 0.6875 1.2226 1.4961 1.832 2.4375 1.832 0.9375 0 1.6875-0.41406 2.2539-1.25 0.5664-0.83203 0.96875-1.9336 1.207-3.3047 0.41406-2.4102 0.625-5.2031 0.625-8.375 0-3.1719-0.19532-7.8242-0.58203-13.957l6.0742 0.625c0.41797 6.1328 0.625 10.305 0.625 12.508 0 2.2031-0.0273 3.7422-0.0898 4.6211-0.0586 0.8789-0.17969 1.8984-0.35547 3.0586-0.17969 1.1641-0.41797 2.25-0.71484 3.2617-0.29688 1.0117-0.69922 2.0234-1.207 3.0352-0.50391 1.0156-1.1016 1.8789-1.7852 2.5938-1.5195 1.6367-3.582 2.4531-6.1875 2.4531s-4.832-1.1602-6.6758-3.4805c-1.8477-2.3242-2.7695-4.9141-2.7695-7.7734 0-6.2812 0.33984-12.98 1.0273-20.098l6.0742 0.57812c-0.65625 6.5234-0.98437 13.027-0.98437 19.52"/>
  <path d="m569.13 483.6c0.38672-1.457 0.57813-2.6797 0.57813-3.6602 0-0.98438-0.26563-1.793-0.80469-2.4336-0.53516-0.64063-1.2266-0.96094-2.0742-0.96094-0.85156 0-1.5586 0.41406-2.1211 1.25-0.56641 0.83203-0.85157 1.7852-0.85157 2.8594 0 2.082 1.1914 3.8711 3.5742 5.3594 2.3828 1.5469 4.0039 2.6641 4.8672 3.3476 0.86328 0.6875 1.4766 1.3125 1.832 1.8789 0.89453 1.457 1.3398 2.9609 1.3398 4.5078 0 2.6836-0.89844 4.8164-2.7031 6.4102-1.8008 1.5938-3.832 2.3906-6.0938 2.3906-2.6797 0-4.9297-1.1328-6.7461-3.3945-1.3086-1.6367-2.5156-3.6758-3.6172-6.1172l4.332-2.1016c0.68359 1.7891 1.543 3.2969 2.5703 4.5352 1.0234 1.2344 2.1211 1.8516 3.2812 1.8516 0.74219 0 1.4141-0.23828 2.0117-0.71484 0.59375-0.47656 0.89063-1.1992 0.89063-2.1641 0-0.96875-0.3711-1.8711-1.1172-2.7031-0.74219-0.83203-1.7422-1.6836-2.9922-2.5469-1.25-0.86329-2.2188-1.5703-2.9023-2.1211-0.6836-0.55078-1.4453-1.2578-2.2774-2.1211-1.5781-1.668-2.3672-3.8047-2.3672-6.4102s0.90625-4.793 2.7226-6.5664c1.8164-1.7695 3.9766-2.6562 6.4766-2.6562 2.5039 0 4.6094 0.96875 6.3203 2.9023 1.7148 1.9375 2.5703 3.9258 2.5703 5.9648 0 2.0391-0.38672 3.7891-1.1641 5.2461l-5.5352-1.832"/>
  <path d="m585.25 496.02c0.32812 1.043 0.49218 2.375 0.49218 4 0 1.6211-0.20703 2.9688-0.625 4.0391l-6.0312-0.49219c0.26953-2.2617 0.40235-3.9961 0.40235-5.2031 0-1.2031-0.0156-2.1641-0.043-2.8789l5.8047 0.53515"/>
  <path d="m72.039 100.11h35.816c3.2578 0 6.0469-2.7891 6.0469-6.0469v-35.816c0-3.2578-2.7891-6.0469-6.0469-6.0469h-35.816c-3.2539 0-6.0469 2.7891-6.0469 6.0469v35.816c0 3.7227 2.793 6.0469 6.0469 6.0469"/>
 </g>
 <path d="m458.11 278.27h65.121c3.2578 0 6.0469-2.7891 6.0469-6.0469v-35.816c0-3.2539-2.7891-6.0469-6.0469-6.0469h-65.121c-3.2539 0-6.0469 2.793-6.0469 6.0469v35.816c-0.46485 3.7227 2.793 6.0469 6.0469 6.0469" fill="#00ae4f"/>
 <path d="m433.93 278.27h-273.51c-3.2578 0-6.0469-2.7891-6.0469-6.0469v-35.816c0-3.2539 2.7891-6.0469 6.0469-6.0469h273.51c3.2578 0 6.0469 2.793 6.0469 6.0469v35.816c0 3.7227-2.7891 6.0469-6.0469 6.0469" fill="#00783a"/>
 <g fill="#1e5135">
  <path d="m72.039 278.27h65.121c3.2578 0 6.0469-2.7891 6.0469-6.0469v-35.816c0-3.2539-2.7891-6.0469-6.0469-6.0469h-65.121c-3.2539 0-6.0469 2.793-6.0469 6.0469v35.816c0 3.7227 2.793 6.0469 6.0469 6.0469"/>
  <path d="m72.039 159.65h59.539c3.2578 0 6.0469-2.7891 6.0469-6.0469v-35.816c0-3.2578-2.7891-6.0469-6.0469-6.0469h-59.539c-3.2539 0-6.0469 2.7891-6.0469 6.0469v35.816c0 3.2578 2.793 6.0469 6.0469 6.0469"/>
  <path d="m451.6 159.65h71.168c3.2578 0 6.0469-2.7891 6.0469-6.0469v-35.816c0-3.2578-2.7891-6.0469-6.0469-6.0469h-71.168c-3.2539 0-6.0469 2.7891-6.0469 6.0469v35.816c0.92968 3.2578 3.2578 6.0469 6.0469 6.0469"/>
 </g>
 <g fill="#00ae4f">
  <path d="m131.11 100.11h35.816c3.2578 0 6.0469-2.7891 6.0469-6.0469v-35.816c0-3.2578-2.7891-6.0469-6.0469-6.0469h-35.816c-3.2539 0-6.0469 2.7891-6.0469 6.0469v35.816c0.46484 3.7227 2.793 6.0469 6.0469 6.0469"/>
  <path d="m190.65 100.11h35.816c3.2578 0 6.0469-2.7891 6.0469-6.0469v-35.816c0-3.2578-2.7891-6.0469-6.0469-6.0469h-35.816c-3.2539 0-6.0469 2.7891-6.0469 6.0469v35.816c0 3.7227 2.793 6.0469 6.0469 6.0469"/>
  <path d="m250.19 100.11h35.816c3.2578 0 6.0469-2.7891 6.0469-6.0469v-35.816c0-3.2578-2.7891-6.0469-6.0469-6.0469h-35.816c-3.2539 0-6.0469 2.7891-6.0469 6.0469v35.816c0 3.7227 2.3281 6.0469 6.0469 6.0469"/>
 </g>
 <g>
  <path d="m309.27 100.11h35.816c3.2578 0 6.0469-2.7891 6.0469-6.0469v-35.816c0-3.2578-2.7891-6.0469-6.0469-6.0469h-35.816c-3.2539 0-6.0469 2.7891-6.0469 6.0469v35.816c0.46484 3.7227 2.793 6.0469 6.0469 6.0469" fill="#1e5135"/>
  <path d="m368.8 100.11h35.816c3.2578 0 6.0469-2.7891 6.0469-6.0469v-35.816c0-3.2578-2.7891-6.0469-6.0469-6.0469h-35.816c-3.2539 0-6.0469 2.7891-6.0469 6.0469v35.816c0 3.7227 2.3281 6.0469 6.0469 6.0469" fill="#00ae4f"/>
  <path d="m427.88 100.11h35.816c3.2578 0 6.0469-2.7891 6.0469-6.0469v-35.816c0-3.2578-2.7891-6.0469-6.0469-6.0469h-35.816c-3.2539 0-6.0469 2.7891-6.0469 6.0469v35.816c0.46484 3.7227 2.793 6.0469 6.0469 6.0469" fill="#00ae4f"/>
  <path d="m487.42 100.11h35.816c3.2578 0 6.0469-2.7891 6.0469-6.0469v-35.816c0-3.2578-2.7891-6.0469-6.0469-6.0469h-35.816c-3.2539 0-6.0469 2.7891-6.0469 6.0469v35.816c0 3.7227 2.793 6.0469 6.0469 6.0469" fill="#00783a"/>
  <path d="m154.84 159.65h35.816c3.2578 0 6.0469-2.7891 6.0469-6.0469v-35.816c0-3.2578-2.7891-6.0469-6.0469-6.0469h-35.816c-3.2539 0-6.0469 2.7891-6.0469 6.0469v35.816c0 3.2578 2.3242 6.0469 6.0469 6.0469" fill="#00ae4f"/>
  <path d="m213.91 159.65h35.816c3.2578 0 6.0469-2.7891 6.0469-6.0469v-35.816c0-3.2578-2.7891-6.0469-6.0469-6.0469h-35.816c-3.2539 0-6.0469 2.7891-6.0469 6.0469v35.816c0.46484 3.2578 2.793 6.0469 6.0469 6.0469" fill="#1e5135"/>
 </g>
 <g fill="#00ae4f">
  <path d="m273.45 159.65h35.816c3.2578 0 6.0469-2.7891 6.0469-6.0469v-35.816c0-3.2578-2.7891-6.0469-6.0469-6.0469h-35.816c-3.2539 0-6.0469 2.7891-6.0469 6.0469v35.816c0 3.2578 3.2578 6.0469 6.0469 6.0469"/>
  <path d="m332.99 159.65h35.816c3.2578 0 6.0469-2.7891 6.0469-6.0469v-35.816c0-3.2578-2.7891-6.0469-6.0469-6.0469h-35.816c-3.2539 0-6.0469 2.7891-6.0469 6.0469v35.816c0 3.2578 3.2578 6.0469 6.0469 6.0469"/>
  <path d="m392.06 159.65h35.816c3.2578 0 6.0469-2.7891 6.0469-6.0469v-35.816c0-3.2578-2.7891-6.0469-6.0469-6.0469h-35.816c-3.2539 0-6.0469 2.7891-6.0469 6.0469v35.816c0.46485 3.2578 2.793 6.0469 6.0469 6.0469"/>
  <path d="m72.039 219.19h35.816c3.2578 0 6.0469-2.7891 6.0469-6.0469v-35.816c0-3.2539-2.7891-6.0469-6.0469-6.0469h-35.816c-3.2539 0-6.0469 2.793-6.0469 6.0469v35.816c0 3.2578 2.793 6.0469 6.0469 6.0469"/>
 </g>
 <g>
  <path d="m131.11 219.19h35.816c3.2578 0 6.0469-2.7891 6.0469-6.0469v-35.816c0-3.2539-2.7891-6.0469-6.0469-6.0469h-35.816c-3.2539 0-6.0469 2.793-6.0469 6.0469v35.816c0.46484 3.2578 2.793 6.0469 6.0469 6.0469" fill="#00783a"/>
  <path d="m190.65 219.19h35.816c3.2578 0 6.0469-2.7891 6.0469-6.0469v-35.816c0-3.2539-2.7891-6.0469-6.0469-6.0469h-35.816c-3.2539 0-6.0469 2.793-6.0469 6.0469v35.816c0 3.2578 2.793 6.0469 6.0469 6.0469" fill="#00ae4f"/>
  <path d="m250.19 219.19h35.816c3.2578 0 6.0469-2.7891 6.0469-6.0469v-35.816c0-3.2539-2.7891-6.0469-6.0469-6.0469h-35.816c-3.2539 0-6.0469 2.793-6.0469 6.0469v35.816c0 3.2578 2.3281 6.0469 6.0469 6.0469" fill="#00783a"/>
  <path d="m309.27 219.19h35.816c3.2578 0 6.0469-2.7891 6.0469-6.0469v-35.816c0-3.2539-2.7891-6.0469-6.0469-6.0469h-35.816c-3.2539 0-6.0469 2.793-6.0469 6.0469v35.816c0.46484 3.2578 2.793 6.0469 6.0469 6.0469" fill="#00ae4f"/>
  <path d="m368.8 219.19h35.816c3.2578 0 6.0469-2.7891 6.0469-6.0469v-35.816c0-3.2539-2.7891-6.0469-6.0469-6.0469h-35.816c-3.2539 0-6.0469 2.793-6.0469 6.0469v35.816c0 3.2578 2.3281 6.0469 6.0469 6.0469" fill="#00783a"/>
  <path d="m427.88 219.19h35.816c3.2578 0 6.0469-2.7891 6.0469-6.0469v-35.816c0-3.2539-2.7891-6.0469-6.0469-6.0469h-35.816c-3.2539 0-6.0469 2.793-6.0469 6.0469v35.816c0.46484 3.2578 2.793 6.0469 6.0469 6.0469" fill="#00ae4f"/>
  <path d="m487.42 219.19h35.816c3.2578 0 6.0469-2.7891 6.0469-6.0469v-35.816c0-3.2539-2.7891-6.0469-6.0469-6.0469h-35.816c-3.2539 0-6.0469 2.793-6.0469 6.0469v35.816c0 3.2578 2.793 6.0469 6.0469 6.0469" fill="#00ae4f"/>
 </g>
</svg>
