<svg height='100px' width='100px' fill="#000000" xmlns="http://www.w3.org/2000/svg" xmlns:xlink="http://www.w3.org/1999/xlink" version="1.0" x="0px" y="0px" viewBox="0 0 100 100" enable-background="new 0 0 100 100" xml:space="preserve"><path d="M1.5,36h7.7c0.7,0,1.3-0.6,1.3-1.3l0,0V27c0-0.7-0.6-1.3-1.3-1.3l0,0H1.5c-0.7,0-1.3,0.6-1.3,1.3l0,0v7.7  C0.2,35.5,0.8,36,1.5,36L1.5,36z"></path><path d="M84.5,74.3h14c0.7,0,1.3-0.6,1.3-1.3l0,0v-7.7c0-0.7-0.6-1.3-1.3-1.3l0,0h-14c-0.7,0-1.3,0.6-1.3,1.3l0,0V73  C83.1,73.8,83.8,74.3,84.5,74.3L84.5,74.3z"></path><path d="M79.3,74.3H20.5c-0.7,0-1.3-0.6-1.3-1.3l0,0v-7.7c0-0.7,0.6-1.3,1.3-1.3l0,0h58.8c0.7,0,1.3,0.6,1.3,1.3l0,0V73  C80.6,73.8,80,74.3,79.3,74.3L79.3,74.3z"></path><path d="M1.5,74.3h14c0.7,0,1.3-0.6,1.3-1.3l0,0v-7.7c0-0.7-0.6-1.3-1.3-1.3l0,0h-14c-0.7,0-1.3,0.6-1.3,1.3l0,0V73  C0.2,73.8,0.8,74.3,1.5,74.3L1.5,74.3z"></path><path d="M1.5,48.8h12.8c0.7,0,1.3-0.6,1.3-1.3l0,0v-7.7c0-0.7-0.6-1.3-1.3-1.3l0,0H1.5c-0.7,0-1.3,0.6-1.3,1.3l0,0v7.7  C0.2,48.2,0.8,48.8,1.5,48.8L1.5,48.8z"></path><path d="M83.1,48.8h15.3c0.7,0,1.3-0.6,1.3-1.3l0,0v-7.7c0-0.7-0.6-1.3-1.3-1.3l0,0H83.1c-0.7,0-1.3,0.6-1.3,1.3l0,0v7.7  C82,48.2,82.5,48.8,83.1,48.8L83.1,48.8z"></path><path d="M14.2,36h7.7c0.7,0,1.3-0.6,1.3-1.3l0,0V27c0-0.7-0.6-1.3-1.3-1.3l0,0h-7.7c-0.7,0-1.3,0.6-1.3,1.3l0,0v7.7  C13,35.5,13.5,36,14.2,36L14.2,36z"></path><path d="M27,36h7.7c0.7,0,1.3-0.6,1.3-1.3l0,0V27c0-0.7-0.6-1.3-1.3-1.3l0,0H27c-0.7,0-1.3,0.6-1.3,1.3l0,0v7.7  C25.7,35.5,26.3,36,27,36L27,36z"></path><path d="M39.8,36h7.7c0.7,0,1.3-0.6,1.3-1.3l0,0V27c0-0.7-0.6-1.3-1.3-1.3l0,0h-7.7c-0.7,0-1.3,0.6-1.3,1.3l0,0v7.7  C38.5,35.5,39,36,39.8,36L39.8,36z"></path><path d="M52.5,36h7.7c0.7,0,1.3-0.6,1.3-1.3l0,0V27c0-0.7-0.6-1.3-1.3-1.3l0,0h-7.7c-0.7,0-1.3,0.6-1.3,1.3l0,0v7.7  C51.3,35.5,51.8,36,52.5,36L52.5,36z"></path><path d="M65.3,36H73c0.7,0,1.3-0.6,1.3-1.3l0,0V27c0-0.7-0.6-1.3-1.3-1.3l0,0h-7.7c-0.7,0-1.3,0.6-1.3,1.3l0,0v7.7  C64,35.5,64.5,36,65.3,36L65.3,36z"></path><path d="M78,36h7.7c0.7,0,1.3-0.6,1.3-1.3l0,0V27c0-0.7-0.6-1.3-1.3-1.3l0,0H78c-0.7,0-1.3,0.6-1.3,1.3l0,0v7.7  C76.8,35.5,77.3,36,78,36L78,36z"></path><path d="M90.8,36h7.7c0.7,0,1.3-0.6,1.3-1.3l0,0V27c0-0.7-0.6-1.3-1.3-1.3l0,0h-7.7c-0.7,0-1.3,0.6-1.3,1.3l0,0v7.7  C89.5,35.5,90.1,36,90.8,36L90.8,36z"></path><path d="M19.3,48.8H27c0.7,0,1.3-0.6,1.3-1.3l0,0v-7.7c0-0.7-0.6-1.3-1.3-1.3l0,0h-7.7c-0.7,0-1.3,0.6-1.3,1.3l0,0v7.7  C18,48.2,18.5,48.8,19.3,48.8L19.3,48.8z"></path><path d="M32,48.8h7.7c0.7,0,1.3-0.6,1.3-1.3l0,0v-7.7c0-0.7-0.6-1.3-1.3-1.3l0,0H32c-0.7,0-1.3,0.6-1.3,1.3l0,0v7.7  C30.8,48.2,31.3,48.8,32,48.8L32,48.8z"></path><path d="M44.8,48.8h7.7c0.7,0,1.3-0.6,1.3-1.3l0,0v-7.7c0-0.7-0.6-1.3-1.3-1.3l0,0h-7.7c-0.7,0-1.3,0.6-1.3,1.3l0,0v7.7  C43.5,48.2,44.2,48.8,44.8,48.8L44.8,48.8z"></path><path d="M57.6,48.8h7.7c0.7,0,1.3-0.6,1.3-1.3l0,0v-7.7c0-0.7-0.6-1.3-1.3-1.3l0,0h-7.7c-0.7,0-1.3,0.6-1.3,1.3l0,0v7.7  C56.3,48.2,57,48.8,57.6,48.8L57.6,48.8z"></path><path d="M70.3,48.8H78c0.7,0,1.3-0.6,1.3-1.3l0,0v-7.7c0-0.7-0.6-1.3-1.3-1.3l0,0h-7.7c-0.7,0-1.3,0.6-1.3,1.3l0,0v7.7  C69.1,48.2,69.6,48.8,70.3,48.8L70.3,48.8z"></path><path d="M1.5,61.6h7.7c0.7,0,1.3-0.6,1.3-1.3l0,0v-7.7c0-0.7-0.6-1.3-1.3-1.3l0,0H1.5c-0.7,0-1.3,0.6-1.3,1.3l0,0v7.7  C0.2,61,0.8,61.6,1.5,61.6L1.5,61.6z"></path><path d="M14.2,61.6h7.7c0.7,0,1.3-0.6,1.3-1.3l0,0v-7.7c0-0.7-0.6-1.3-1.3-1.3l0,0h-7.7c-0.7,0-1.3,0.6-1.3,1.3l0,0v7.7  C13,61,13.5,61.6,14.2,61.6L14.2,61.6z"></path><path d="M27,61.6h7.7c0.7,0,1.3-0.6,1.3-1.3l0,0v-7.7c0-0.7-0.6-1.3-1.3-1.3l0,0H27c-0.7,0-1.3,0.6-1.3,1.3l0,0v7.7  C25.7,61,26.3,61.6,27,61.6L27,61.6z"></path><path d="M39.8,61.6h7.7c0.7,0,1.3-0.6,1.3-1.3l0,0v-7.7c0-0.7-0.6-1.3-1.3-1.3l0,0h-7.7c-0.7,0-1.3,0.6-1.3,1.3l0,0v7.7  C38.5,61,39,61.6,39.8,61.6L39.8,61.6z"></path><path d="M52.5,61.6h7.7c0.7,0,1.3-0.6,1.3-1.3l0,0v-7.7c0-0.7-0.6-1.3-1.3-1.3l0,0h-7.7c-0.7,0-1.3,0.6-1.3,1.3l0,0v7.7  C51.3,61,51.8,61.6,52.5,61.6L52.5,61.6z"></path><path d="M65.3,61.6H73c0.7,0,1.3-0.6,1.3-1.3l0,0v-7.7c0-0.7-0.6-1.3-1.3-1.3l0,0h-7.7c-0.7,0-1.3,0.6-1.3,1.3l0,0v7.7  C64,61,64.5,61.6,65.3,61.6L65.3,61.6z"></path><path d="M78,61.6h7.7c0.7,0,1.3-0.6,1.3-1.3l0,0v-7.7c0-0.7-0.6-1.3-1.3-1.3l0,0H78c-0.7,0-1.3,0.6-1.3,1.3l0,0v7.7  C76.8,61,77.3,61.6,78,61.6L78,61.6z"></path><path d="M90.8,61.6h7.7c0.7,0,1.3-0.6,1.3-1.3l0,0v-7.7c0-0.7-0.6-1.3-1.3-1.3l0,0h-7.7c-0.7,0-1.3,0.6-1.3,1.3l0,0v7.7  C89.5,61,90.1,61.6,90.8,61.6L90.8,61.6z"></path></svg>