<?xml version="1.0" encoding="UTF-8"?>
<svg width="201.2" height="99.2" enable-background="new 0 0 100 100" fill="#f8f8f8" version="1.0" viewBox="0 0 100.6 49.6" xml:space="preserve" xmlns="http://www.w3.org/2000/svg" xmlns:cc="http://creativecommons.org/ns#" xmlns:dc="http://purl.org/dc/elements/1.1/" xmlns:rdf="http://www.w3.org/1999/02/22-rdf-syntax-ns#"><metadata><rdf:RDF><cc:Work rdf:about=""><dc:format>image/svg+xml</dc:format><dc:type rdf:resource="http://purl.org/dc/dcmitype/StillImage"/><dc:title/></cc:Work></rdf:RDF></metadata><path d="m1.8 10.8h7.7c0.7 0 1.3-0.6 1.3-1.3v-7.7c0-0.7-0.6-1.3-1.3-1.3h-7.7c-0.7 0-1.3 0.6-1.3 1.3v7.7c0 0.8 0.6 1.3 1.3 1.3z"/><path d="m84.8 49.1h14c0.7 0 1.3-0.6 1.3-1.3v-7.7c0-0.7-0.6-1.3-1.3-1.3h-14c-0.7 0-1.3 0.6-1.3 1.3v7.7c-0.1 0.8 0.6 1.3 1.3 1.3z"/><path d="m79.6 49.1h-58.8c-0.7 0-1.3-0.6-1.3-1.3v-7.7c0-0.7 0.6-1.3 1.3-1.3h58.8c0.7 0 1.3 0.6 1.3 1.3v7.7c0 0.8-0.6 1.3-1.3 1.3z"/><path d="m1.8 49.1h14c0.7 0 1.3-0.6 1.3-1.3v-7.7c0-0.7-0.6-1.3-1.3-1.3h-14c-0.7 0-1.3 0.6-1.3 1.3v7.7c0 0.8 0.6 1.3 1.3 1.3z"/><path d="m1.8 23.6h12.8c0.7 0 1.3-0.6 1.3-1.3v-7.7c0-0.7-0.6-1.3-1.3-1.3h-12.8c-0.7 0-1.3 0.6-1.3 1.3v7.7c0 0.7 0.6 1.3 1.3 1.3z"/><path d="m83.4 23.6h15.3c0.7 0 1.3-0.6 1.3-1.3v-7.7c0-0.7-0.6-1.3-1.3-1.3h-15.3c-0.7 0-1.3 0.6-1.3 1.3v7.7c0.2 0.7 0.7 1.3 1.3 1.3z"/><path d="m14.5 10.8h7.7c0.7 0 1.3-0.6 1.3-1.3v-7.7c0-0.7-0.6-1.3-1.3-1.3h-7.7c-0.7 0-1.3 0.6-1.3 1.3v7.7c0.1 0.8 0.6 1.3 1.3 1.3z"/><path d="m27.3 10.8h7.7c0.7 0 1.3-0.6 1.3-1.3v-7.7c0-0.7-0.6-1.3-1.3-1.3h-7.7c-0.7 0-1.3 0.6-1.3 1.3v7.7c0 0.8 0.6 1.3 1.3 1.3z"/><path d="m40.1 10.8h7.7c0.7 0 1.3-0.6 1.3-1.3v-7.7c0-0.7-0.6-1.3-1.3-1.3h-7.7c-0.7 0-1.3 0.6-1.3 1.3v7.7c0 0.8 0.5 1.3 1.3 1.3z"/><path d="m52.8 10.8h7.7c0.7 0 1.3-0.6 1.3-1.3v-7.7c0-0.7-0.6-1.3-1.3-1.3h-7.7c-0.7 0-1.3 0.6-1.3 1.3v7.7c0.1 0.8 0.6 1.3 1.3 1.3z"/><path d="m65.6 10.8h7.7c0.7 0 1.3-0.6 1.3-1.3v-7.7c0-0.7-0.6-1.3-1.3-1.3h-7.7c-0.7 0-1.3 0.6-1.3 1.3v7.7c0 0.8 0.5 1.3 1.3 1.3z"/><path d="m78.3 10.8h7.7c0.7 0 1.3-0.6 1.3-1.3v-7.7c0-0.7-0.6-1.3-1.3-1.3h-7.7c-0.7 0-1.3 0.6-1.3 1.3v7.7c0.1 0.8 0.6 1.3 1.3 1.3z"/><path d="m91.1 10.8h7.7c0.7 0 1.3-0.6 1.3-1.3v-7.7c0-0.7-0.6-1.3-1.3-1.3h-7.7c-0.7 0-1.3 0.6-1.3 1.3v7.7c0 0.8 0.6 1.3 1.3 1.3z"/><path d="m19.6 23.6h7.7c0.7 0 1.3-0.6 1.3-1.3v-7.7c0-0.7-0.6-1.3-1.3-1.3h-7.7c-0.7 0-1.3 0.6-1.3 1.3v7.7c0 0.7 0.5 1.3 1.3 1.3z"/><path d="m32.3 23.6h7.7c0.7 0 1.3-0.6 1.3-1.3v-7.7c0-0.7-0.6-1.3-1.3-1.3h-7.7c-0.7 0-1.3 0.6-1.3 1.3v7.7c0.1 0.7 0.6 1.3 1.3 1.3z"/><path d="m45.1 23.6h7.7c0.7 0 1.3-0.6 1.3-1.3v-7.7c0-0.7-0.6-1.3-1.3-1.3h-7.7c-0.7 0-1.3 0.6-1.3 1.3v7.7c0 0.7 0.7 1.3 1.3 1.3z"/><path d="m57.9 23.6h7.7c0.7 0 1.3-0.6 1.3-1.3v-7.7c0-0.7-0.6-1.3-1.3-1.3h-7.7c-0.7 0-1.3 0.6-1.3 1.3v7.7c0 0.7 0.7 1.3 1.3 1.3z"/><path d="m70.6 23.6h7.7c0.7 0 1.3-0.6 1.3-1.3v-7.7c0-0.7-0.6-1.3-1.3-1.3h-7.7c-0.7 0-1.3 0.6-1.3 1.3v7.7c0.1 0.7 0.6 1.3 1.3 1.3z"/><path d="m1.8 36.4h7.7c0.7 0 1.3-0.6 1.3-1.3v-7.7c0-0.7-0.6-1.3-1.3-1.3h-7.7c-0.7 0-1.3 0.6-1.3 1.3v7.7c0 0.7 0.6 1.3 1.3 1.3z"/><path d="m14.5 36.4h7.7c0.7 0 1.3-0.6 1.3-1.3v-7.7c0-0.7-0.6-1.3-1.3-1.3h-7.7c-0.7 0-1.3 0.6-1.3 1.3v7.7c0.1 0.7 0.6 1.3 1.3 1.3z"/><path d="m27.3 36.4h7.7c0.7 0 1.3-0.6 1.3-1.3v-7.7c0-0.7-0.6-1.3-1.3-1.3h-7.7c-0.7 0-1.3 0.6-1.3 1.3v7.7c0 0.7 0.6 1.3 1.3 1.3z"/><path d="m40.1 36.4h7.7c0.7 0 1.3-0.6 1.3-1.3v-7.7c0-0.7-0.6-1.3-1.3-1.3h-7.7c-0.7 0-1.3 0.6-1.3 1.3v7.7c0 0.7 0.5 1.3 1.3 1.3z"/><path d="m52.8 36.4h7.7c0.7 0 1.3-0.6 1.3-1.3v-7.7c0-0.7-0.6-1.3-1.3-1.3h-7.7c-0.7 0-1.3 0.6-1.3 1.3v7.7c0.1 0.7 0.6 1.3 1.3 1.3z"/><path d="m65.6 36.4h7.7c0.7 0 1.3-0.6 1.3-1.3v-7.7c0-0.7-0.6-1.3-1.3-1.3h-7.7c-0.7 0-1.3 0.6-1.3 1.3v7.7c0 0.7 0.5 1.3 1.3 1.3z"/><path d="m78.3 36.4h7.7c0.7 0 1.3-0.6 1.3-1.3v-7.7c0-0.7-0.6-1.3-1.3-1.3h-7.7c-0.7 0-1.3 0.6-1.3 1.3v7.7c0.1 0.7 0.6 1.3 1.3 1.3z"/><path d="m91.1 36.4h7.7c0.7 0 1.3-0.6 1.3-1.3v-7.7c0-0.7-0.6-1.3-1.3-1.3h-7.7c-0.7 0-1.3 0.6-1.3 1.3v7.7c0 0.7 0.6 1.3 1.3 1.3z"/></svg>
